<?xml version="1.0" encoding="UTF-8" standalone="yes"?>
<svg xmlns="http://www.w3.org/2000/svg" width="100%" height="100%" viewBox="0 0 146.44100000000003 20.953" fill="#0d141a">
  <path d="M4.62 16.49L4.62 16.49Q3.08 16.49 1.94 15.93Q0.80 15.36 0 14.35L0 14.35L2.42 12.03Q2.83 12.60 3.39 12.90Q3.96 13.20 4.67 13.20L4.67 13.20Q5.36 13.20 5.87 12.91Q6.37 12.63 6.67 12.09Q6.97 11.55 6.97 10.74L6.97 10.74L6.97 0L10.60 0L10.60 10.53Q10.60 12.35 9.87 13.68Q9.13 15.02 7.80 15.75Q6.46 16.49 4.62 16.49ZM17.83 16.47L17.83 16.47Q16.28 16.47 15.08 15.71Q13.87 14.95 13.17 13.64Q12.47 12.33 12.47 10.65L12.47 10.65Q12.47 8.97 13.17 7.66Q13.87 6.35 15.08 5.59Q16.28 4.83 17.83 4.83L17.83 4.83Q18.95 4.83 19.86 5.27Q20.77 5.70 21.34 6.47Q21.92 7.24 21.99 8.23L21.99 8.23L21.99 13.06Q21.92 14.05 21.36 14.82Q20.79 15.59 19.87 16.03Q18.95 16.47 17.83 16.47ZM18.54 13.29L18.54 13.29Q19.66 13.29 20.36 12.55Q21.05 11.80 21.05 10.65L21.05 10.65Q21.05 9.87 20.73 9.27Q20.42 8.67 19.86 8.34Q19.30 8.00 18.56 8.00L18.56 8.00Q17.83 8.00 17.26 8.34Q16.70 8.67 16.36 9.27Q16.03 9.87 16.03 10.65L16.03 10.65Q16.03 11.41 16.35 12.01Q16.68 12.60 17.25 12.95Q17.83 13.29 18.54 13.29ZM24.36 16.24L20.91 16.24L20.91 13.22L21.44 10.51L20.91 7.80L20.91 5.06L24.36 5.06L24.36 16.24ZM33.28 16.47L33.28 16.47Q32.15 16.47 31.21 16.03Q30.27 15.59 29.67 14.82Q29.07 14.05 28.98 13.06L28.98 13.06L28.98 8.35Q29.07 7.36 29.67 6.55Q30.27 5.75 31.21 5.29Q32.15 4.83 33.28 4.83L33.28 4.83Q34.87 4.83 36.10 5.59Q37.33 6.35 38.03 7.66Q38.73 8.97 38.73 10.65L38.73 10.65Q38.73 12.33 38.03 13.64Q37.33 14.95 36.10 15.71Q34.87 16.47 33.28 16.47ZM30.31 20.95L26.84 20.95L26.84 5.06L30.36 5.06L30.36 7.94L29.79 10.65L30.31 13.36L30.31 20.95ZM32.64 13.29L32.64 13.29Q33.40 13.29 33.96 12.95Q34.52 12.60 34.85 12.01Q35.17 11.41 35.17 10.65L35.17 10.65Q35.17 9.87 34.85 9.27Q34.52 8.67 33.96 8.34Q33.40 8.00 32.66 8.00L32.66 8.00Q31.92 8.00 31.36 8.34Q30.80 8.67 30.48 9.27Q30.15 9.87 30.15 10.65L30.15 10.65Q30.15 11.41 30.46 12.01Q30.77 12.60 31.35 12.95Q31.92 13.29 32.64 13.29ZM45.20 16.47L45.20 16.47Q43.65 16.47 42.45 15.71Q41.24 14.95 40.54 13.64Q39.84 12.33 39.84 10.65L39.84 10.65Q39.84 8.97 40.54 7.66Q41.24 6.35 42.45 5.59Q43.65 4.83 45.20 4.83L45.20 4.83Q46.32 4.83 47.23 5.27Q48.14 5.70 48.71 6.47Q49.29 7.24 49.36 8.23L49.36 8.23L49.36 13.06Q49.29 14.05 48.73 14.82Q48.16 15.59 47.24 16.03Q46.32 16.47 45.20 16.47ZM45.91 13.29L45.91 13.29Q47.04 13.29 47.73 12.55Q48.42 11.80 48.42 10.65L48.42 10.65Q48.42 9.87 48.10 9.27Q47.79 8.67 47.23 8.34Q46.67 8.00 45.93 8.00L45.93 8.00Q45.20 8.00 44.63 8.34Q44.07 8.67 43.73 9.27Q43.40 9.87 43.40 10.65L43.40 10.65Q43.40 11.41 43.72 12.01Q44.05 12.60 44.62 12.95Q45.20 13.29 45.91 13.29ZM51.73 16.24L48.28 16.24L48.28 13.22L48.81 10.51L48.28 7.80L48.28 5.06L51.73 5.06L51.73 16.24ZM65.11 16.24L61.59 16.24L61.59 9.87Q61.59 8.99 61.05 8.45Q60.51 7.91 59.69 7.91L59.69 7.91Q59.11 7.91 58.67 8.15Q58.24 8.39 57.98 8.84Q57.73 9.29 57.73 9.87L57.73 9.87L56.37 9.20Q56.37 7.89 56.95 6.90Q57.52 5.91 58.55 5.37Q59.57 4.83 60.86 4.83L60.86 4.83Q62.10 4.83 63.05 5.42Q64.01 6.00 64.56 6.97Q65.11 7.94 65.11 9.09L65.11 9.09L65.11 16.24ZM57.73 16.24L54.21 16.24L54.21 5.06L57.73 5.06L57.73 16.24ZM74.47 10.33L70.45 10.33L70.45 7.52L73.95 7.52Q74.61 7.52 75.16 7.24Q75.72 6.97 76.04 6.44Q76.36 5.91 76.36 5.15L76.36 5.15Q76.36 4.42 76.04 3.89Q75.72 3.36 75.16 3.08Q74.61 2.81 73.95 2.81L73.95 2.81L70.45 2.81L70.45 0L74.47 0Q76.02 0 77.26 0.62Q78.50 1.24 79.22 2.40Q79.95 3.56 79.95 5.15L79.95 5.15Q79.95 6.74 79.22 7.90Q78.50 9.06 77.26 9.69Q76.02 10.33 74.47 10.33L74.47 10.33ZM71.30 16.24L67.69 16.24L67.69 0L71.30 0L71.30 16.24ZM85.33 16.24L81.81 16.24L81.81 5.06L85.33 5.06L85.33 16.24ZM85.33 10.10L85.33 10.10L83.86 8.95Q84.30 6.99 85.33 5.91Q86.37 4.83 88.21 4.83L88.21 4.83Q89.01 4.83 89.62 5.07Q90.23 5.31 90.69 5.82L90.69 5.82L88.60 8.46Q88.37 8.21 88.02 8.07Q87.68 7.94 87.24 7.94L87.24 7.94Q86.37 7.94 85.85 8.48Q85.33 9.02 85.33 10.10ZM96.83 16.49L96.83 16.49Q95.01 16.49 93.60 15.74Q92.18 15.00 91.38 13.66Q90.57 12.33 90.57 10.65L90.57 10.65Q90.57 8.97 91.37 7.65Q92.16 6.32 93.52 5.57Q94.88 4.81 96.58 4.81L96.58 4.81Q98.23 4.81 99.50 5.52Q100.76 6.23 101.49 7.50Q102.21 8.76 102.21 10.40L102.21 10.40Q102.21 10.70 102.18 11.03Q102.14 11.36 102.05 11.80L102.05 11.80L92.41 11.82L92.41 9.41L100.56 9.38L99.04 10.40Q99.02 9.43 98.74 8.80Q98.46 8.16 97.92 7.83Q97.38 7.50 96.60 7.50L96.60 7.50Q95.77 7.50 95.16 7.88Q94.55 8.26 94.22 8.95Q93.89 9.64 93.89 10.63L93.89 10.63Q93.89 11.61 94.24 12.32Q94.60 13.02 95.25 13.40Q95.91 13.78 96.81 13.78L96.81 13.78Q97.64 13.78 98.30 13.49Q98.97 13.20 99.48 12.63L99.48 12.63L101.41 14.56Q100.58 15.53 99.41 16.01Q98.23 16.49 96.83 16.49ZM107.99 16.51L107.99 16.51Q107.00 16.51 106.04 16.26Q105.09 16.01 104.27 15.54Q103.45 15.06 102.88 14.44L102.88 14.44L104.88 12.42Q105.43 13.02 106.19 13.35Q106.95 13.68 107.85 13.68L107.85 13.68Q108.47 13.68 108.80 13.50Q109.14 13.32 109.14 12.99L109.14 12.99Q109.14 12.58 108.73 12.36Q108.33 12.14 107.71 11.97Q107.09 11.80 106.40 11.59Q105.71 11.38 105.09 11.02Q104.47 10.65 104.08 9.99Q103.68 9.34 103.68 8.33L103.68 8.33Q103.68 7.24 104.24 6.45Q104.79 5.66 105.80 5.20Q106.81 4.74 108.17 4.74L108.17 4.74Q109.60 4.74 110.80 5.23Q112.01 5.73 112.77 6.69L112.77 6.69L110.77 8.72Q110.24 8.10 109.58 7.84Q108.93 7.59 108.31 7.59L108.31 7.59Q107.71 7.59 107.41 7.76Q107.11 7.94 107.11 8.26L107.11 8.26Q107.11 8.60 107.50 8.81Q107.89 9.02 108.51 9.18Q109.14 9.34 109.83 9.57Q110.52 9.80 111.14 10.19Q111.76 10.58 112.15 11.24Q112.54 11.89 112.54 12.95L112.54 12.95Q112.54 14.58 111.31 15.55Q110.08 16.51 107.99 16.51ZM118.52 16.51L118.52 16.51Q117.53 16.51 116.58 16.26Q115.62 16.01 114.80 15.54Q113.99 15.06 113.41 14.44L113.41 14.44L115.41 12.42Q115.97 13.02 116.73 13.35Q117.48 13.68 118.38 13.68L118.38 13.68Q119.00 13.68 119.34 13.50Q119.67 13.32 119.67 12.99L119.67 12.99Q119.67 12.58 119.27 12.36Q118.86 12.14 118.24 11.97Q117.62 11.80 116.93 11.59Q116.24 11.38 115.62 11.02Q115.00 10.65 114.61 9.99Q114.22 9.34 114.22 8.33L114.22 8.33Q114.22 7.24 114.77 6.45Q115.32 5.66 116.33 5.20Q117.35 4.74 118.70 4.74L118.70 4.74Q120.13 4.74 121.34 5.23Q122.54 5.73 123.30 6.69L123.30 6.69L121.30 8.72Q120.77 8.10 120.12 7.84Q119.46 7.59 118.84 7.59L118.84 7.59Q118.24 7.59 117.94 7.76Q117.65 7.94 117.65 8.26L117.65 8.26Q117.65 8.60 118.04 8.81Q118.43 9.02 119.05 9.18Q119.67 9.34 120.36 9.57Q121.05 9.80 121.67 10.19Q122.29 10.58 122.68 11.24Q123.07 11.89 123.07 12.95L123.07 12.95Q123.07 14.58 121.84 15.55Q120.61 16.51 118.52 16.51ZM130.50 16.49L130.50 16.49Q128.69 16.49 127.27 15.74Q125.86 15.00 125.05 13.66Q124.25 12.33 124.25 10.65L124.25 10.65Q124.25 8.97 125.04 7.65Q125.83 6.32 127.19 5.57Q128.55 4.81 130.25 4.81L130.25 4.81Q131.91 4.81 133.17 5.52Q134.44 6.23 135.16 7.50Q135.88 8.76 135.88 10.40L135.88 10.40Q135.88 10.70 135.85 11.03Q135.82 11.36 135.72 11.80L135.72 11.80L126.09 11.82L126.09 9.41L134.23 9.38L132.71 10.40Q132.69 9.43 132.41 8.80Q132.14 8.16 131.59 7.83Q131.05 7.50 130.27 7.50L130.27 7.50Q129.44 7.50 128.83 7.88Q128.23 8.26 127.89 8.95Q127.56 9.64 127.56 10.63L127.56 10.63Q127.56 11.61 127.91 12.32Q128.27 13.02 128.93 13.40Q129.58 13.78 130.48 13.78L130.48 13.78Q131.31 13.78 131.97 13.49Q132.64 13.20 133.15 12.63L133.15 12.63L135.08 14.56Q134.25 15.53 133.08 16.01Q131.91 16.49 130.50 16.49ZM141.66 16.51L141.66 16.51Q140.67 16.51 139.71 16.26Q138.76 16.01 137.94 15.54Q137.13 15.06 136.55 14.44L136.55 14.44L138.55 12.42Q139.10 13.02 139.86 13.35Q140.62 13.68 141.52 13.68L141.52 13.68Q142.14 13.68 142.47 13.50Q142.81 13.32 142.81 12.99L142.81 12.99Q142.81 12.58 142.40 12.36Q142.00 12.14 141.38 11.97Q140.76 11.80 140.07 11.59Q139.38 11.38 138.76 11.02Q138.14 10.65 137.75 9.99Q137.36 9.34 137.36 8.33L137.36 8.33Q137.36 7.24 137.91 6.45Q138.46 5.66 139.47 5.20Q140.48 4.74 141.84 4.74L141.84 4.74Q143.27 4.74 144.47 5.23Q145.68 5.73 146.44 6.69L146.44 6.69L144.44 8.72Q143.91 8.10 143.26 7.84Q142.60 7.59 141.98 7.59L141.98 7.59Q141.38 7.59 141.08 7.76Q140.78 7.94 140.78 8.26L140.78 8.26Q140.78 8.60 141.17 8.81Q141.57 9.02 142.19 9.18Q142.81 9.34 143.50 9.57Q144.19 9.80 144.81 10.19Q145.43 10.58 145.82 11.24Q146.21 11.89 146.21 12.95L146.21 12.95Q146.21 14.58 144.98 15.55Q143.75 16.51 141.66 16.51Z" preserveAspectRatio="none"/>
</svg>